<mxfile host="app.diagrams.net" modified="2023-03-07T12:14:47.204Z" agent="5.0 (Macintosh; Intel Mac OS X 10_15_7) AppleWebKit/537.36 (KHTML, like Gecko) Chrome/109.0.0.0 Safari/537.36" etag="B0KSHoE7QYLx2ekRC4gM" version="20.8.23" type="github">
  <diagram name="Page-1" id="JvDzSgPygLWXZZ9vSR6P">
    <mxGraphModel dx="1434" dy="807" grid="0" gridSize="10" guides="1" tooltips="1" connect="1" arrows="1" fold="1" page="1" pageScale="1" pageWidth="1500" pageHeight="800" math="0" shadow="0">
      <root>
        <mxCell id="0" />
        <mxCell id="1" parent="0" />
        <mxCell id="5oJiJIDe_rZSl5cIz4C3-2" value="" style="rounded=0;whiteSpace=wrap;html=1;fillColor=#414C59;fontColor=#ffffff;strokeColor=#314354;" vertex="1" parent="1">
          <mxGeometry x="627" y="292" width="170" height="245" as="geometry" />
        </mxCell>
        <mxCell id="5oJiJIDe_rZSl5cIz4C3-7" value="&lt;" style="group" vertex="1" connectable="0" parent="1">
          <mxGeometry x="414" y="376" width="78" height="78" as="geometry" />
        </mxCell>
        <mxCell id="5oJiJIDe_rZSl5cIz4C3-5" value="" style="ellipse;whiteSpace=wrap;html=1;aspect=fixed;fillColor=#414C59;" vertex="1" parent="5oJiJIDe_rZSl5cIz4C3-7">
          <mxGeometry width="78" height="78" as="geometry" />
        </mxCell>
        <mxCell id="5oJiJIDe_rZSl5cIz4C3-8" value="" style="group" vertex="1" connectable="0" parent="5oJiJIDe_rZSl5cIz4C3-7">
          <mxGeometry x="16.998287276488846" y="14.55223880597015" width="44" height="60.92607063691446" as="geometry" />
        </mxCell>
        <mxCell id="5oJiJIDe_rZSl5cIz4C3-4" value="" style="shape=actor;whiteSpace=wrap;html=1;fillColor=#ffcc99;strokeColor=#36393d;" vertex="1" parent="5oJiJIDe_rZSl5cIz4C3-8">
          <mxGeometry x="10.359921678735034" width="23.283582089552244" height="34.92537313432836" as="geometry" />
        </mxCell>
        <mxCell id="5oJiJIDe_rZSl5cIz4C3-6" value="&lt;font color=&quot;#ffffff&quot;&gt;Alice&lt;/font&gt;" style="text;html=1;align=center;verticalAlign=middle;resizable=0;points=[];autosize=1;strokeColor=none;fillColor=none;" vertex="1" parent="5oJiJIDe_rZSl5cIz4C3-8">
          <mxGeometry y="34.92607063691445" width="44" height="26" as="geometry" />
        </mxCell>
        <mxCell id="5oJiJIDe_rZSl5cIz4C3-9" value="&lt;font style=&quot;font-size: 25px;&quot;&gt;Aperta&lt;/font&gt;" style="text;html=1;align=center;verticalAlign=middle;resizable=0;points=[];autosize=1;strokeColor=none;fillColor=none;fontColor=#FFFFFF;" vertex="1" parent="1">
          <mxGeometry x="666" y="303" width="92" height="42" as="geometry" />
        </mxCell>
        <mxCell id="5oJiJIDe_rZSl5cIz4C3-10" value="" style="endArrow=classic;html=1;rounded=0;fontSize=25;fontColor=#FFFFFF;" edge="1" parent="1">
          <mxGeometry width="50" height="50" relative="1" as="geometry">
            <mxPoint x="503" y="382" as="sourcePoint" />
            <mxPoint x="616" y="382" as="targetPoint" />
          </mxGeometry>
        </mxCell>
        <mxCell id="5oJiJIDe_rZSl5cIz4C3-11" value="" style="endArrow=classic;html=1;rounded=0;fontSize=25;fontColor=#FFFFFF;" edge="1" parent="1">
          <mxGeometry width="50" height="50" relative="1" as="geometry">
            <mxPoint x="616" y="454" as="sourcePoint" />
            <mxPoint x="503" y="454" as="targetPoint" />
          </mxGeometry>
        </mxCell>
        <mxCell id="5oJiJIDe_rZSl5cIz4C3-12" value="&lt;font style=&quot;font-size: 12px;&quot; color=&quot;#000000&quot;&gt;ETH&lt;/font&gt;" style="text;html=1;align=center;verticalAlign=middle;resizable=0;points=[];autosize=1;strokeColor=none;fillColor=none;fontSize=25;fontColor=#FFFFFF;" vertex="1" parent="1">
          <mxGeometry x="539" y="337" width="42" height="42" as="geometry" />
        </mxCell>
        <mxCell id="5oJiJIDe_rZSl5cIz4C3-15" value="&lt;font style=&quot;font-size: 12px;&quot; color=&quot;#000000&quot;&gt;ccETH&lt;/font&gt;" style="text;html=1;align=center;verticalAlign=middle;resizable=0;points=[];autosize=1;strokeColor=none;fillColor=none;fontSize=25;fontColor=#FFFFFF;" vertex="1" parent="1">
          <mxGeometry x="533" y="410" width="54" height="42" as="geometry" />
        </mxCell>
        <mxCell id="5oJiJIDe_rZSl5cIz4C3-16" value="&lt;span style=&quot;color: rgb(255, 255, 255); background-color: initial;&quot;&gt;stake ETH&lt;br&gt;&lt;br&gt;&lt;br&gt;&lt;br&gt;&lt;/span&gt;&lt;br&gt;&lt;span style=&quot;color: rgb(255, 255, 255); background-color: initial;&quot;&gt;issue ccETH&amp;nbsp;&lt;/span&gt;" style="text;html=1;align=left;verticalAlign=middle;resizable=0;points=[];autosize=1;strokeColor=none;fillColor=none;fontSize=12;fontColor=#000000;" vertex="1" parent="1">
          <mxGeometry x="651" y="370" width="89" height="98" as="geometry" />
        </mxCell>
        <mxCell id="5oJiJIDe_rZSl5cIz4C3-17" value="" style="aspect=fixed;perimeter=ellipsePerimeter;html=1;align=center;shadow=0;dashed=0;spacingTop=3;image;image=img/lib/active_directory/databases.svg;fontSize=12;fontColor=#FFFFFF;fillColor=#414C59;" vertex="1" parent="1">
          <mxGeometry x="733" y="390" width="50" height="49" as="geometry" />
        </mxCell>
      </root>
    </mxGraphModel>
  </diagram>
</mxfile>
